<svg xmlns="http://www.w3.org/2000/svg" viewBox="0 0 86.39792 92.76886"><defs><style>.a{fill:#fff}</style></defs><title>neuviemepage</title><path class="a" d="M43.205 0l-23.77 12.875-.002 53.986 47.522-25.87.01-23.8-.004-4.302zm0 4.256L63.038 15.01 43.202 25.773l-19.844-10.76zm-3.86 23.675L23.35 36.638v-17.38zm23.703 10.892L23.35 60.432v-19.5l39.698-21.61v19.5zM6.44 86.317v4.053H4.593v-3.513a1.197 1.197 0 0 0-1.27-1.32 1.494 1.494 0 0 0-1.476 1.655v3.178H0v-6.452h1.847v1.127a2.408 2.408 0 0 1 2.23-1.2 2.26 2.26 0 0 1 2.363 2.472zM13.497 87.708h-4.63a1.648 1.648 0 0 0 1.667 1.295 2.29 2.29 0 0 0 1.632-.683l.97.983a3.598 3.598 0 0 1-2.758 1.14 3.293 3.293 0 1 1-.047-6.585c2.267 0 3.322 1.5 3.167 3.85zm-1.727-1.09a1.347 1.347 0 0 0-1.428-1.405 1.513 1.513 0 0 0-1.51 1.404h2.938zM20.372 90.37h-1.835v-1.14a2.29 2.29 0 0 1-2.16 1.213 2.233 2.233 0 0 1-2.325-2.47v-4.055h1.846v3.526a1.168 1.168 0 0 0 1.212 1.307 1.475 1.475 0 0 0 1.427-1.64v-3.192h1.835v6.452zM23.207 90.37l-2.447-6.44 1.907-.012 1.523 4.7 1.51-4.7h1.836l-2.434 6.452h-1.895zM29.794 82.083a.996.996 0 1 1-.995-1.032.973.973 0 0 1 .994 1.033zm-1.92 8.287v-6.452h1.848v6.452h-1.847zM36.956 87.708h-4.63a1.648 1.648 0 0 0 1.668 1.295 2.29 2.29 0 0 0 1.63-.683l.972.983a3.598 3.598 0 0 1-2.758 1.14 3.293 3.293 0 1 1-.048-6.585c2.267 0 3.322 1.5 3.166 3.85zM31.69 81.83l1.716-.634 1.283 1.955h-1.476zm3.54 4.786a1.347 1.347 0 0 0-1.428-1.403 1.513 1.513 0 0 0-1.51 1.403h2.937zM48.57 86.317v4.053h-1.837v-3.513a1.185 1.185 0 0 0-1.246-1.32 1.475 1.475 0 0 0-1.427 1.643v3.19h-1.835v-3.513a1.183 1.183 0 0 0-1.236-1.32 1.477 1.477 0 0 0-1.44 1.643v3.19h-1.847v-6.452h1.847v1.115a2.383 2.383 0 0 1 2.183-1.187 2.143 2.143 0 0 1 2.182 1.487 2.36 2.36 0 0 1 2.327-1.487 2.24 2.24 0 0 1 2.327 2.47zM55.628 87.708h-4.63a1.648 1.648 0 0 0 1.667 1.295 2.29 2.29 0 0 0 1.63-.683l.973.983a3.597 3.597 0 0 1-2.76 1.14 3.293 3.293 0 1 1-.046-6.585c2.266 0 3.32 1.5 3.166 3.85zm-1.728-1.09a1.347 1.347 0 0 0-1.426-1.405 1.513 1.513 0 0 0-1.512 1.404H53.9zM65.767 87.18a2.96 2.96 0 0 1-2.998 3.263 2.44 2.44 0 0 1-2.076-1.008v3.263h-1.847v-8.78h1.847v.948a2.39 2.39 0 0 1 2.038-1.008 3.017 3.017 0 0 1 3.035 3.322zm-1.87-.06a1.61 1.61 0 1 0-1.596 1.788 1.622 1.622 0 0 0 1.596-1.788zM70.257 89.615a2.483 2.483 0 0 1-2.028.84 2 2 0 0 1-2.22-2.015c0-1.212.877-1.932 2.46-1.944h1.774v-.12a1.105 1.105 0 0 0-1.343-1.08 4.092 4.092 0 0 0-1.918.565l-.576-1.27a6.054 6.054 0 0 1 2.915-.744c1.728 0 2.723.863 2.736 2.314l.01 4.21h-1.81v-.755zm-.013-1.452v-.575h-1.45c-.708 0-1.057.216-1.057.732a.864.864 0 0 0 1.008.815 1.427 1.427 0 0 0 1.5-.972zM79.23 89.77c0 1.836-1.378 3-3.44 3a5.014 5.014 0 0 1-2.808-.853l.684-1.295a3.412 3.412 0 0 0 2.003.648 1.497 1.497 0 0 0 1.726-1.44v-.73a2.28 2.28 0 0 1-1.943.934 2.827 2.827 0 0 1-2.818-3.118 2.78 2.78 0 0 1 2.77-3.058 2.325 2.325 0 0 1 1.99.935v-.875h1.836v5.853zm-1.834-2.806a1.523 1.523 0 0 0-1.51-1.68 1.546 1.546 0 0 0-1.525 1.68 1.524 1.524 0 1 0 3.036 0zM86.383 87.708h-4.63a1.65 1.65 0 0 0 1.668 1.295 2.29 2.29 0 0 0 1.632-.683l.97.983a3.6 3.6 0 0 1-2.757 1.14 3.293 3.293 0 1 1-.048-6.585c2.266 0 3.322 1.5 3.166 3.85zm-1.727-1.09a1.348 1.348 0 0 0-1.428-1.405 1.513 1.513 0 0 0-1.51 1.404h2.938z"/></svg>